<svg width="1080" height="1080" viewBox="0 0 1080 1080" fill="none" xmlns="http://www.w3.org/2000/svg">
<rect width="1080" height="1080" fill="white"/>
<path d="M189.933 499.828V516.673C181.713 509.797 173.209 506.358 164.42 506.358C154.736 506.358 146.577 509.837 139.945 516.795C133.272 523.713 129.935 532.176 129.935 542.186C129.935 552.074 133.272 560.415 139.945 567.21C146.618 574.006 154.797 577.403 164.481 577.403C169.486 577.403 173.738 576.59 177.237 574.962C179.19 574.148 181.205 573.049 183.28 571.666C185.396 570.283 187.613 568.614 189.933 566.661V583.812C181.795 588.41 173.25 590.709 164.298 590.709C150.829 590.709 139.334 586.009 129.813 576.61C120.332 567.129 115.592 555.695 115.592 542.308C115.592 530.305 119.559 519.603 127.494 510.204C137.259 498.688 149.894 492.931 165.396 492.931C173.86 492.931 182.039 495.23 189.933 499.828ZM202.506 558.849C202.506 550.263 205.578 542.959 211.722 536.937C217.866 530.915 225.353 527.904 234.183 527.904C243.054 527.904 250.581 530.935 256.766 536.998C262.87 543.061 265.921 550.507 265.921 559.337C265.921 568.248 262.849 575.715 256.705 581.737C250.52 587.718 242.931 590.709 233.939 590.709C225.028 590.709 217.561 587.657 211.539 581.554C205.517 575.532 202.506 567.963 202.506 558.849ZM216.544 559.093C216.544 565.034 218.131 569.733 221.305 573.192C224.56 576.691 228.853 578.441 234.183 578.441C239.554 578.441 243.847 576.712 247.062 573.253C250.276 569.794 251.883 565.176 251.883 559.398C251.883 553.62 250.276 549.002 247.062 545.543C243.806 542.044 239.514 540.294 234.183 540.294C228.934 540.294 224.682 542.044 221.427 545.543C218.172 549.042 216.544 553.559 216.544 559.093ZM280.509 529.552H294.242V535.045C296.887 532.278 299.145 530.406 301.017 529.43C303.01 528.412 305.513 527.904 308.524 527.904C315.238 527.904 320.548 530.833 324.454 536.693C328.767 530.833 334.606 527.904 341.971 527.904C355.358 527.904 362.052 536.021 362.052 552.257V589H348.258V555.98C348.258 550.283 347.566 546.255 346.183 543.895C344.758 541.494 342.419 540.294 339.164 540.294C335.379 540.294 332.612 541.718 330.863 544.566C329.154 547.415 328.299 551.992 328.299 558.299V589H314.505V556.163C314.505 545.584 311.454 540.294 305.35 540.294C301.485 540.294 298.657 541.738 296.866 544.627C295.117 547.516 294.242 552.074 294.242 558.299V589H280.509V529.552ZM393.119 529.552V589H379.386V529.552H393.119ZM377.311 504.833C377.311 502.432 378.185 500.357 379.935 498.607C381.685 496.857 383.78 495.982 386.222 495.982C388.704 495.982 390.82 496.857 392.569 498.607C394.319 500.316 395.194 502.411 395.194 504.894C395.194 507.376 394.319 509.492 392.569 511.241C390.86 512.991 388.765 513.866 386.283 513.866C383.801 513.866 381.685 512.991 379.935 511.241C378.185 509.492 377.311 507.355 377.311 504.833ZM410.514 529.552H424.308V535.045C429.109 530.284 434.521 527.904 440.543 527.904C447.46 527.904 452.852 530.081 456.717 534.435C460.054 538.137 461.722 544.18 461.722 552.562V589H447.928V555.797C447.928 549.938 447.114 545.889 445.487 543.651C443.9 541.372 441.011 540.233 436.82 540.233C432.263 540.233 429.028 541.738 427.115 544.75C425.243 547.72 424.308 552.908 424.308 560.313V589H410.514V529.552ZM536.612 587.596C536.612 590.404 536.511 592.866 536.307 594.981C536.144 597.138 535.9 599.03 535.575 600.658C534.598 605.134 532.686 608.979 529.837 612.193C524.466 618.378 517.081 621.471 507.682 621.471C499.747 621.471 493.216 619.334 488.089 615.062C482.8 610.667 479.748 604.584 478.934 596.812H492.728C493.257 599.742 494.132 602 495.353 603.587C498.201 607.29 502.351 609.142 507.804 609.142C517.854 609.142 522.879 602.977 522.879 590.648V582.347C517.427 587.922 511.14 590.709 504.02 590.709C495.922 590.709 489.29 587.779 484.122 581.92C478.914 575.979 476.31 568.553 476.31 559.642C476.31 550.975 478.731 543.61 483.573 537.547C488.781 531.118 495.658 527.904 504.203 527.904C511.69 527.904 517.915 530.691 522.879 536.266V529.552H536.612V587.596ZM523.429 559.398C523.429 553.62 521.882 549.002 518.79 545.543C515.657 542.003 511.649 540.233 506.766 540.233C501.558 540.233 497.448 542.166 494.437 546.031C491.711 549.49 490.348 553.966 490.348 559.459C490.348 564.871 491.711 569.306 494.437 572.765C497.407 576.549 501.517 578.441 506.766 578.441C512.015 578.441 516.166 576.528 519.217 572.704C522.025 569.245 523.429 564.81 523.429 559.398ZM627.066 539.684L615.714 545.726C613.924 542.064 611.706 540.233 609.061 540.233C607.8 540.233 606.721 540.66 605.826 541.515C604.931 542.328 604.483 543.386 604.483 544.688C604.483 546.967 607.128 549.225 612.418 551.463C619.701 554.597 624.605 557.486 627.127 560.13C629.65 562.775 630.912 566.336 630.912 570.812C630.912 576.549 628.796 581.35 624.564 585.216C620.454 588.878 615.49 590.709 609.671 590.709C599.702 590.709 592.643 585.847 588.492 576.122L600.211 570.689C601.839 573.538 603.08 575.348 603.934 576.122C605.602 577.668 607.596 578.441 609.916 578.441C614.554 578.441 616.874 576.325 616.874 572.093C616.874 569.652 615.083 567.373 611.502 565.257C610.119 564.566 608.736 563.894 607.352 563.243C605.969 562.592 604.565 561.921 603.141 561.229C599.153 559.276 596.345 557.323 594.718 555.37C592.643 552.888 591.605 549.693 591.605 545.787C591.605 540.619 593.375 536.347 596.915 532.97C600.536 529.592 604.931 527.904 610.099 527.904C617.708 527.904 623.364 531.83 627.066 539.684ZM640.494 558.849C640.494 550.263 643.566 542.959 649.71 536.937C655.855 530.915 663.342 527.904 672.171 527.904C681.042 527.904 688.569 530.935 694.754 536.998C700.858 543.061 703.91 550.507 703.91 559.337C703.91 568.248 700.838 575.715 694.693 581.737C688.508 587.718 680.92 590.709 671.927 590.709C663.016 590.709 655.549 587.657 649.527 581.554C643.505 575.532 640.494 567.963 640.494 558.849ZM654.532 559.093C654.532 565.034 656.119 569.733 659.293 573.192C662.548 576.691 666.841 578.441 672.171 578.441C677.542 578.441 681.835 576.712 685.05 573.253C688.264 569.794 689.872 565.176 689.872 559.398C689.872 553.62 688.264 549.002 685.05 545.543C681.795 542.044 677.502 540.294 672.171 540.294C666.922 540.294 662.67 542.044 659.415 545.543C656.16 549.042 654.532 553.559 654.532 559.093ZM715.689 558.849C715.689 550.263 718.762 542.959 724.906 536.937C731.05 530.915 738.537 527.904 747.367 527.904C756.237 527.904 763.765 530.935 769.95 536.998C776.053 543.061 779.105 550.507 779.105 559.337C779.105 568.248 776.033 575.715 769.889 581.737C763.704 587.718 756.115 590.709 747.123 590.709C738.211 590.709 730.745 587.657 724.723 581.554C718.701 575.532 715.689 567.963 715.689 558.849ZM729.728 559.093C729.728 565.034 731.314 569.733 734.488 573.192C737.743 576.691 742.036 578.441 747.367 578.441C752.738 578.441 757.031 576.712 760.245 573.253C763.46 569.794 765.067 565.176 765.067 559.398C765.067 553.62 763.46 549.002 760.245 545.543C756.99 542.044 752.697 540.294 747.367 540.294C742.118 540.294 737.866 542.044 734.61 545.543C731.355 549.042 729.728 553.559 729.728 559.093ZM793.692 529.552H807.486V535.045C812.288 530.284 817.7 527.904 823.722 527.904C830.639 527.904 836.03 530.081 839.896 534.435C843.233 538.137 844.901 544.18 844.901 552.562V589H831.107V555.797C831.107 549.938 830.293 545.889 828.666 543.651C827.079 541.372 824.19 540.233 819.999 540.233C815.441 540.233 812.206 541.738 810.294 544.75C808.422 547.72 807.486 552.908 807.486 560.313V589H793.692V529.552ZM864.432 582.164C864.432 579.885 865.266 577.912 866.935 576.244C868.603 574.575 870.597 573.741 872.916 573.741C875.235 573.741 877.229 574.575 878.897 576.244C880.566 577.912 881.4 579.906 881.4 582.225C881.4 584.585 880.566 586.599 878.897 588.268C877.27 589.895 875.276 590.709 872.916 590.709C870.515 590.709 868.501 589.895 866.874 588.268C865.246 586.64 864.432 584.605 864.432 582.164ZM903.006 582.164C903.006 579.885 903.84 577.912 905.509 576.244C907.177 574.575 909.171 573.741 911.49 573.741C913.81 573.741 915.803 574.575 917.472 576.244C919.14 577.912 919.974 579.906 919.974 582.225C919.974 584.585 919.14 586.599 917.472 588.268C915.844 589.895 913.85 590.709 911.49 590.709C909.09 590.709 907.075 589.895 905.448 588.268C903.82 586.64 903.006 584.605 903.006 582.164ZM941.581 582.164C941.581 579.885 942.415 577.912 944.083 576.244C945.751 574.575 947.745 573.741 950.064 573.741C952.384 573.741 954.378 574.575 956.046 576.244C957.714 577.912 958.548 579.906 958.548 582.225C958.548 584.585 957.714 586.599 956.046 588.268C954.418 589.895 952.424 590.709 950.064 590.709C947.664 590.709 945.65 589.895 944.022 588.268C942.394 586.64 941.581 584.605 941.581 582.164Z" fill="#231815"/>
</svg>
